<svg xmlns="http://www.w3.org/2000/svg" viewBox="0 0 100 112">
  <path d="M50 4 L91 28 L91 55 L78 55 L78 36 L50 20 Z" fill="#E5262B"/>
  <path d="M91 28 L91 84 L68 97 L61 86 L78 76 L78 36 Z" fill="#A62080"/>
  <path d="M91 84 L50 108 L27 95 L34 84 L50 93 L78 76 Z" fill="#01A4E1"/>
  <path d="M50 108 L9 84 L9 57 L22 57 L22 76 L50 93 Z" fill="#01A4E1"/>
  <path d="M9 84 L9 28 L32 15 L39 26 L22 36 L22 76 Z" fill="#009C60"/>
  <path d="M9 28 L50 4 L73 17 L66 28 L50 19 L22 36 Z" fill="#E5262B"/>
  <path d="M50 33 L68 65 L32 65 Z" fill="#F2C600"/>
  <path d="M32 65 L50 33 L50 75 Z" fill="#009C60"/>
  <path d="M68 65 L50 75 L50 33 Z" fill="#E5262B" opacity=".95"/>
</svg>
